<svg width="113" height="95" viewBox="0 0 113 95" fill="none" xmlns="http://www.w3.org/2000/svg">
    <rect width="113" height="95" rx="11" fill="#E0E0E0"/>
    <mask id="mask0_621_9" style="mask-type:alpha" maskUnits="userSpaceOnUse" x="0" y="0" width="113" height="95">
        <rect width="113" height="95" rx="11" fill="#E0E0E0"/>
    </mask>
    <g mask="url(#mask0_621_9)">
        <path d="M41.5203 21.63C43.4495 18.3214 48.2298 18.3214 50.159 21.63L81.154 74.787C83.0975 78.1203 80.6931 82.3056 76.8346 82.3056H14.8447C10.9861 82.3056 8.5817 78.1203 10.5253 74.787L41.5203 21.63Z"
              fill="#7986CB"/>
        <path d="M71.9023 35.3522C73.8315 32.0436 78.6119 32.0436 80.5411 35.3522L103.689 75.0509C105.632 78.3842 103.228 82.5694 99.3693 82.5694H53.0741C49.2155 82.5694 46.8111 78.3842 48.7547 75.0509L71.9023 35.3522Z"
              fill="#3949AB"/>
        <ellipse cx="84.217" cy="18.4444" rx="8.5283" ry="8.44444" fill="#F44336"/>
    </g>
</svg>
